<?xml version="1.0" encoding="utf-8"?>
<!-- Generator: Adobe Illustrator 16.0.0, SVG Export Plug-In . SVG Version: 6.00 Build 0)  -->
<!DOCTYPE svg PUBLIC "-//W3C//DTD SVG 1.1//EN" "http://www.w3.org/Graphics/SVG/1.1/DTD/svg11.dtd">
<svg version="1.1" id="图层_1" xmlns="http://www.w3.org/2000/svg" xmlns:xlink="http://www.w3.org/1999/xlink" x="0px" y="0px"
	 width="595.28px" height="841.89px" viewBox="0 0 595.28 841.89" enable-background="new 0 0 595.28 841.89" xml:space="preserve">
<g>
	<g>
		<defs>
			<rect id="SVGID_1_" x="81" y="23.89" width="424.416" height="459"/>
		</defs>
		<clipPath id="SVGID_2_">
			<use xlink:href="#SVGID_1_"  overflow="visible"/>
		</clipPath>
		<path clip-path="url(#SVGID_2_)" fill="#86939E" d="M428.85,482.331H157.351c-20.276,0.086-39.746-7.93-54.083-22.268
			C88.933,445.725,80.915,426.255,81,405.98V134.481c-0.092-20.28,7.924-39.756,22.262-54.099
			c14.337-14.341,33.809-22.361,54.089-22.276H428.85c20.275-0.085,39.747,7.933,54.083,22.269
			c14.338,14.337,22.355,33.807,22.268,54.083V405.98c0.088,20.275-7.93,39.745-22.268,54.083
			C468.597,474.401,449.125,482.417,428.85,482.331L428.85,482.331z M157.351,75.081c-15.78-0.092-30.939,6.138-42.094,17.297
			c-11.157,11.161-17.381,26.323-17.283,42.103V405.98c-0.098,15.784,6.128,30.95,17.29,42.109
			c11.161,11.161,26.327,17.387,42.11,17.289H428.85c15.784,0.098,30.949-6.128,42.111-17.289
			c11.161-11.159,17.388-26.326,17.289-42.109V134.481c0.099-15.784-6.128-30.95-17.289-42.111
			c-11.162-11.161-26.327-17.387-42.111-17.289H157.351z M157.351,75.081"/>
	</g>
	<path fill="#86939E" d="M182.801,24.181c9.364,0.026,16.949,7.611,16.975,16.975v42.425c-0.337,9.125-7.832,16.35-16.964,16.35
		s-16.627-7.225-16.961-16.35V41.156C165.875,31.801,173.447,24.218,182.801,24.181L182.801,24.181z M403.4,24.181
		c9.364,0.026,16.949,7.611,16.975,16.975v42.425c0.229,6.208-2.955,12.046-8.297,15.218c-5.342,3.172-11.991,3.172-17.332,0
		c-5.344-3.172-8.525-9.01-8.298-15.218V41.156C386.475,31.801,394.045,24.218,403.4,24.181L403.4,24.181z M403.4,24.181"/>
</g>
<rect x="165.852" y="102.89" fill="none" width="326" height="340"/>
<text transform="matrix(1 0 0 1 165.8516 366.8916)" fill="#86939E" font-family="'AdobeSongStd-Light-GBpc-EUC-H'" font-size="300">M</text>
</svg>
