<?xml version="1.0" encoding="utf-8"?>
<!-- Generator: Adobe Illustrator 16.0.0, SVG Export Plug-In . SVG Version: 6.00 Build 0)  -->
<!DOCTYPE svg PUBLIC "-//W3C//DTD SVG 1.1//EN" "http://www.w3.org/Graphics/SVG/1.1/DTD/svg11.dtd">
<svg version="1.1" id="图层_1" xmlns="http://www.w3.org/2000/svg" xmlns:xlink="http://www.w3.org/1999/xlink" x="0px" y="0px"
	 width="595.28px" height="841.89px" viewBox="0 0 595.28 841.89" enable-background="new 0 0 595.28 841.89" xml:space="preserve">
<path fill="#EE3A3A" d="M296.801,224.248c-108.493,0-196.443,87.951-196.443,196.443c0,108.497,87.951,196.442,196.443,196.442
	c108.49,0,196.443-87.952,196.443-196.442C493.244,312.198,405.291,224.248,296.801,224.248L296.801,224.248z M371.249,431.847
	l-91.978,53.104c-8.589,4.949-19.325-1.246-19.325-11.158V367.583c0-9.919,10.736-16.115,19.325-11.153l91.978,53.102
	C379.824,414.488,379.824,426.891,371.249,431.847L371.249,431.847z M371.249,431.847"/>
<path fill="#EE3A3A" d="M296.801,192.89C170.996,192.89,69,294.879,69,420.691c0,125.805,101.996,227.801,227.801,227.801
	c125.805,0,227.801-101.996,227.801-227.801C524.602,294.879,422.605,192.89,296.801,192.89L296.801,192.89z M296.801,622.971
	c-113.289,0-205.133-91.844-205.133-205.133c0-113.287,91.844-205.125,205.133-205.125s205.138,91.842,205.138,205.131
	C501.938,531.134,410.09,622.971,296.801,622.971L296.801,622.971z M296.801,622.971"/>
<circle fill="#EE3A3A" cx="344" cy="423.89" r="112"/>
<path fill="#FFFFFF" d="M244.736,517.703c-1.018,1.921-2.795,2.854-5.357,2.795c-2.534-0.03-4.774-1.107-6.725-3.203l-20.308-19.157
	c-4.148-3.902-4.265-7.921-0.378-12.082l75.51-80.707c-4.323-9.551-5.518-19.828-3.582-30.776
	c1.922-10.975,6.785-20.612,14.589-28.938c8.297-8.852,18.313-14.559,30.032-17.091c11.717-2.534,22.752-1.252,33.103,3.813
	l-35.781,39.072l26.522,25.011l35.812-38.288c5.139,10.076,6.959,21.05,5.46,32.93c-1.515,11.909-6.406,22.273-14.717,31.152
	c-7.79,8.328-17.063,13.802-27.851,16.422c-10.772,2.649-21.051,2.096-30.816-1.63L244.736,517.703z M244.736,517.703"/>
</svg>
