<?xml version="1.0" standalone="no"?>
<!DOCTYPE svg PUBLIC "-//W3C//DTD SVG 1.1//EN" "http://www.w3.org/Graphics/SVG/1.1/DTD/svg11.dtd" >
<!--
2013-9-30: Created.
-->
<svg>
<metadata>
Created by iconfont
</metadata>
<defs>

<font id="iconfont" horiz-adv-x="1024" >
  <font-face
    font-family="iconfont"
    font-weight="500"
    font-stretch="normal"
    units-per-em="1024"
    ascent="896"
    descent="-128"
  />
    <missing-glyph />
    
    <glyph glyph-name="icon55yuanxingfangdajing" unicode="&#58939;" d="M513.670547 833.415616c-247.949138 0-448.956152-201.003943-448.956152-448.956152 0-247.949138 201.007013-448.955128 448.956152-448.955128s448.955128 201.007013 448.955128 448.955128C962.625676 632.411673 761.618663 833.415616 513.670547 833.415616zM513.670547 24.783709c-198.640106 0-359.676779 161.036673-359.676779 359.675756 0 198.643176 161.036673 359.672686 359.676779 359.672686 198.639083 0 359.675756-161.02951 359.675756-359.672686C873.346303 185.820382 712.30963 24.783709 513.670547 24.783709zM685.857165 548.879188c48.542576-48.542576 48.542576-127.252219 0-175.793772-48.548716-48.545646-127.255289-48.545646-175.796842 0-48.542576 48.542576-48.542576 127.248126 0 175.793772C558.601876 597.424834 637.308449 597.424834 685.857165 548.879188zM535.394315 398.423501c34.556027-34.551934 90.572832-34.551934 125.120672 0 34.55705 34.548864 34.55705 90.569762 0 125.118626-34.548864 34.551934-90.565668 34.551934-125.120672 0C500.845451 488.993263 500.845451 432.972365 535.394315 398.423501zM473.644498 312.907246l-23.808419 23.805052 55.541986 55.549841 23.808419-23.805052-55.541986-55.549841ZM325.88158 248.519376c-7.819083-7.823176-6.832615-21.490453 2.207271-30.53341l26.876114-26.873044c9.038864-9.03784 22.704095-10.029424 30.529317-2.206248l103.426581 103.422488c7.819083 7.823176 6.832615 21.490453-2.207271 30.53341l-26.876114 26.873044c-9.038864 9.03784-22.711258 10.029424-30.529317 2.206248L325.88158 248.519376z"  horiz-adv-x="1024" />

    
    <glyph glyph-name="shangchuantupian" unicode="&#59139;" d="M475.136 513.536c0 40.96-34.304 74.24-76.288 73.216-37.376-1.024-69.12-32.768-70.144-70.144-1.536-41.472 31.744-76.288 73.216-76.288 40.448 0 73.216 32.768 73.216 73.216zM923.136 161.28h-133.12v133.12c0 12.8-8.704 24.576-20.992 26.624-16.896 3.584-31.744-9.728-31.744-25.6V161.28h-133.632c-12.8 0-24.576-8.704-26.624-20.992-3.584-16.896 9.728-31.744 25.6-31.744h134.656v-133.632c0-12.8 8.704-24.576 20.992-26.624 16.896-3.584 31.744 9.728 31.744 25.6v134.656h134.656c16.384 0 29.184 14.848 25.6 31.744-2.56 12.288-14.336 20.992-27.136 20.992zM870.4 824.32h-716.8c-45.056 0-81.92-36.864-81.92-81.92v-716.8c0-45.056 36.864-81.92 81.92-81.92h488.448c14.336 0 25.6 11.264 25.6 25.6s-11.264 25.6-25.6 25.6H153.6c-16.896 0-30.72 13.824-30.72 30.72v716.8c0 16.896 13.824 30.72 30.72 30.72h716.8c16.896 0 30.72-13.824 30.72-30.72V258.56c0-14.336 11.264-25.6 25.6-25.6s25.6 11.264 25.6 25.6v483.328c0 45.056-36.864 82.432-81.92 82.432zM789.504 415.232l-107.008 145.92c-2.048 3.072-5.12 5.632-8.192 7.168-2.56 1.536-5.12 2.048-5.632 2.048-1.024 0.512-2.56 0.512-5.632 1.024-2.048 0-4.608 0-5.632-0.512-0.512 0-8.704-1.536-14.848-8.704l-212.48-249.344-47.104 75.264c-2.56 4.096-6.656 7.168-7.68 7.68-4.096 2.56-8.192 3.584-8.704 3.584-5.12 1.024-8.704 0-9.728 0-1.024 0-4.608-1.024-9.216-3.584-1.024-0.512-3.072-2.048-4.608-3.584l-133.12-135.68c-9.728-10.24-9.728-26.112 0.512-36.352 10.24-9.728 26.112-9.728 36.352 0.512l110.592 112.64 48.64-77.312c2.048-3.072 5.12-6.144 5.632-6.144 1.024-1.024 4.096-3.072 7.68-4.608 4.096-1.536 10.752-1.536 13.824-1.024 1.024 0 2.048 0.512 3.072 1.024 0.512 0 3.584 1.536 5.12 2.56s5.632 4.608 6.144 5.12L660.48 504.32l87.552-119.808c8.192-11.264 24.576-13.824 35.84-5.632 11.264 8.704 13.824 24.576 5.632 36.352z"  horiz-adv-x="1024" />

    
    <glyph glyph-name="xiangmu" unicode="&#58911;" d="M753.984 338.304h-160.64a46.72 46.72 0 0 1-46.784-46.784v-160.896a207.552 207.552 0 1 1 414.976-7.232v7.232a207.808 207.808 0 0 1-207.552 207.68zM753.984 822.656a207.68 207.68 0 0 1-207.488-207.68v-160.832c0-25.856 20.992-46.784 46.72-46.784h160.768c114.496 0 207.36 92.992 207.36 207.68s-92.864 207.616-207.36 207.616zM270.464 338.304a207.552 207.552 0 0 1-207.424-207.68 207.488 207.488 0 1 1 414.848 0V291.52a46.72 46.72 0 0 1-46.656 46.784H270.464zM270.464 822.656c-114.56 0-207.424-92.992-207.424-207.68s92.864-207.68 207.424-207.68h160.704a46.72 46.72 0 0 1 46.72 46.72V614.912a207.616 207.616 0 0 1-207.424 207.744z"  horiz-adv-x="1024" />

    
    <glyph glyph-name="erjicaidan_shishichaxun_jianxiuxiangmubiangengchaxun" unicode="&#59047;" d="M1009.77667095-68.74606977999997l-91.89125718 91.89125713a191.65732778 191.65732778 0 1 1-45.97336216-44.36512429l92.66764902-92.66764898s13.80864419-6.59931409 32.99656385 12.53315137c19.46519737 19.46519737 12.20040642 32.60836474 12.20040647 32.60836477z m-244.7291052 79.19174309a123.33503749 123.33503749 0 1 0 0 246.72553583 123.33503749 123.33503749 0 0 0 0-246.72553583zM938.18245718 448.27396864c73.4797358 75.08796718 91.3366954 185.2798437 53.90362347 277.67020851l-161.54450115-162.70908566-135.59090474 138.47464192 161.21176271 162.43180146a245.56095129 245.56095129 0 0 1-270.62724746-55.73368465c-88.17568033-90.06119591-95.66229483-230.42135338-24.12353518-330.02105505l-73.20245166-62.66573072-251.55024276 258.03864198-1.05366952 78.5262663-149.56591812 93.4440343L12.89237546 770.91932412l90.89304179-149.2886405 78.52626626-0.05545425 248.72196635-254.65580348-374.49708781-320.37163437a79.57993578 79.57993578 0 0 1 0-110.80189268l27.11818103-27.72820354c29.94645748-30.66738853 78.58172047-30.66738853 108.52818448 0l447.64407858 499.44036304a244.7291053 244.7291053 0 0 1 298.35545104 40.8159103zM146.54230382-47.949918740000044a37.82126455 37.82126455 0 0 0-54.29181614 0 39.76224073 39.76224073 0 0 0 0 55.40094627 37.82126455 37.82126455 0 0 0 54.29181614 0c14.97322875-15.36142147 14.97322875-40.0949792 0-55.40094627z"  horiz-adv-x="1024" />

    
    <glyph glyph-name="evulate" unicode="&#58887;" d="M932.117 49.54399999999998H627.301L512.012-63.331999999999994 396.655 49.54399999999998H91.873c-50.251 0-91.14 40.028-91.14 89.22v603.38c0 49.16 40.889 89.188 91.14 89.188h840.244c50.252 0 91.107-40.03 91.107-89.188v-603.38c0-49.192-40.855-89.22-91.107-89.22z m-1.886 653.2c0 25.44-20.841 46.149-46.414 46.149H140.272c-25.638 0-46.48-20.71-46.48-46.15v-527.62c0-25.44 20.842-46.117 46.48-46.117h294.527l77.246-76.749 77.18 76.75h294.592c25.572 0 46.414 20.675 46.414 46.116v527.62zM704.68 396.704c-33.345 0-60.54 26.664-60.54 59.38 0 32.685 27.194 59.317 60.54 59.317 33.446 0 60.607-26.63 60.607-59.316 0-32.717-27.16-59.382-60.607-59.382z m-192.667 0c-33.379 0-60.606 26.664-60.606 59.38 0 32.685 27.227 59.317 60.606 59.317 33.38 0 60.54-26.63 60.54-59.316 0-32.717-27.162-59.382-60.54-59.382z m-192.735 0c-33.38 0-60.573 26.664-60.573 59.38 0 32.685 27.193 59.317 60.573 59.317 33.346 0 60.54-26.63 60.54-59.316 0-32.717-27.194-59.382-60.54-59.382z"  horiz-adv-x="1039" />

    
    <glyph glyph-name="tongji" unicode="&#58880;" d="M534.75392 895.36l-20.468 0 0-468.719c0-7.685 2.558-12.805 7.676-17.929 5.114-5.119 12.792-7.685 17.912-7.685l483.583 0 0 20.494C1026.01392 687.896 808.53092 895.36 534.75392 895.36L534.75392 895.36zM555.22192 442.01L555.22192 854.376C790.62092 844.132 972.28292 667.403 982.52092 442.01L555.22192 442.01 555.22192 442.01zM486.14292-126.60000000000002c271.214 0 493.818 212.59 493.818 476.405l0 20.489L481.02292 370.294 481.02292 854.377l-20.466 0C207.24692 854.376-0.00208 628.986-0.00208 352.365-0.00208 83.428 214.92192-126.60000000000002 486.14292-126.60000000000002L486.14292-126.60000000000002zM437.52492 810.835l0-458.469c0-7.684 2.563-12.805 7.677-17.928 5.118-5.124 12.795-7.687 17.91-7.687l473.35 0c-10.235-227.958-209.807-412.368-450.32-412.368-248.19 0-445.205 192.095-445.205 437.982C40.93792 598.251 217.47992 800.591 437.52492 810.835L437.52492 810.835z"  horiz-adv-x="1025" />

    
    <glyph glyph-name="xiugai" unicode="&#59050;" d="M860.288 538.368c-12.202667 0-24.405333-12.202667-24.405333-24.405333V19.626667a13.141333 13.141333 0 0 0-12.202667-12.202667H152.448a13.141333 13.141333 0 0 0-12.202667 12.202667V690.901333c0 6.101333 6.101333 12.202667 12.202667 12.202667h494.293333c12.202667 0 24.405333 12.202667 24.405334 24.405333s-12.202667 24.405333-24.405334 24.405334H152.448C115.84 751.914667 85.333333 727.509333 85.333333 690.901333v-671.232c0-36.608 30.506667-67.114667 67.114667-67.114666h671.232c36.608 0 67.114667 30.506667 67.114667 67.114666V513.962667c-6.101333 12.202667-18.304 24.405333-30.506667 24.405333z m73.216 262.4c-12.202667 12.202667-24.405333 12.202667-36.608 0L305.066667 208.853333c-12.202667-12.202667-12.202667-24.405333 0-36.608 6.101333-6.101333 12.202667-6.101333 18.304-6.101333 6.101333 0 12.202667 0 18.304 6.101333L933.504 764.117333c6.101333 6.144 6.101333 24.448 0 36.650667z"  horiz-adv-x="1024" />

    
    <glyph glyph-name="zhengque" unicode="&#58918;" d="M1011.476952 384.770649c0-273.484102-222.645343-496.851929-498.417309-496.009031-200.609595 0.746566-379.376105 121.353151-456.103857 302.455692a493.046849 493.046849 0 0 0-39.182691 193.553339C17.773095 657.941675 240.298024 880.201693 516.527563 879.406961 791.191722 878.61223 1011.476952 657.171025 1011.476952 384.770649zM516.744309 815.154092c-240.77968 0.842897-433.971778-193.360677-433.971778-430.35936 0-60.158796 12.28222-116.343932 33.788146-168.001505a431.972907 431.972907 0 0 1 396.306303-262.622766c176.045155-0.842897 332.824083 103.339229 400.183631 262.622766 44.649483 106.180997 44.649483 229.027281 0 335.882596C846.461712 710.129069 691.416745 814.190781 516.744309 815.154092zM258.625024 371.356538l161.980809-161.788147c15.894638-15.605644 41.6873-15.605644 57.678269 0L770.456444 500.801505a40.868485 40.868485 0 0 1 0 57.798683c-15.292568 15.629727-41.759548 15.629727-57.678269 0l-263.224835-262.646848-132.768392 132.334901a41.879962 41.879962 0 0 1-58.20809 0.313076 40.627658 40.627658 0 0 1 0.048166-57.244779z"  horiz-adv-x="1024" />

    
    <glyph glyph-name="icon_daipaidan" unicode="&#58998;" d="M706.048 320c0 17.92-12.8 30.72-30.72 30.72H262.656c-17.92 0-30.72-12.8-30.72-30.72s12.8-30.72 30.72-30.72h412.672c17.92 0 30.72 12.8 30.72 30.72zM231.424 505.856c0-17.92 12.8-30.72 30.72-30.72H757.76c17.92 0 30.72 12.8 30.72 30.72s-12.8 30.72-30.72 30.72H262.656c-18.432 0-31.232-12.288-31.232-30.72zM509.952 165.376H262.656c-17.92 0-30.72-12.8-30.72-30.72s12.8-30.72 30.72-30.72h247.808c13.824 0 25.088 7.68 28.16 19.456 4.096 9.728 3.072 19.968-2.56 28.672-6.144 8.192-15.872 13.312-26.112 13.312zM840.192 763.904h-171.008c-14.336 0-26.112 9.216-29.184 23.552-16.384 59.904-68.608 99.84-130.048 99.84S396.8 847.36 380.416 786.432c-3.072-13.312-14.848-23.04-29.184-23.04H179.712C139.264 763.392 107.52 731.648 107.52 691.2v-740.864c0-40.448 31.744-72.192 72.192-72.192h340.48c11.264 0 20.48 4.608 26.112 13.312 5.632 8.704 6.144 19.456 2.048 30.208l-1.024 1.536c-6.144 9.728-15.872 14.848-27.136 14.848H179.712c-6.656 0-10.24 3.584-10.24 10.24V691.712c0 6.656 3.584 10.24 10.24 10.24h171.008c39.424 0 76.8 28.16 88.064 67.072 9.216 32.256 35.84 54.784 65.024 56.832 34.816 2.048 65.024-20.48 74.24-54.272 11.264-40.96 48.64-69.632 90.112-69.632h171.008c6.656 0 10.24-3.584 10.24-10.24v-402.432c0-14.336 7.68-25.6 19.968-28.672 11.776-3.072 22.528-1.024 30.72 5.12 7.168 5.632 10.752 13.824 10.752 23.552V691.712c1.536 40.448-30.208 72.192-70.656 72.192zM764.928 124.416c6.656 16.384 1.536 33.28-12.288 41.472l-1.536 0.512c-16.384 6.656-33.28 1.536-41.472-12.288l-123.904-214.528-0.512-1.536c-6.656-15.872-1.536-33.28 12.288-41.472l1.536-0.512c4.608-2.048 9.216-2.56 13.824-2.56 11.264 0 21.504 5.632 27.648 15.36l123.904 214.528 0.512 1.024zM798.72-40.96c-17.92 0-30.72-12.8-30.72-30.72 0-18.432 12.8-30.72 30.72-30.72s30.72 12.8 30.72 30.72c0.512 17.92-12.8 30.72-30.72 30.72zM551.424 681.472c17.92 0 30.72 12.8 30.72 30.72s-12.8 30.72-30.72 30.72H468.992c-17.92 0-30.72-12.8-30.72-30.72 0-18.432 12.8-30.72 30.72-30.72h82.432zM881.152-40.96c-17.92 0-30.72-12.8-30.72-30.72 0-18.432 12.8-30.72 30.72-30.72s30.72 12.8 30.72 30.72c0.512 17.92-12.288 30.72-30.72 30.72zM711.168-40.96c-17.92 0-30.72-12.8-30.72-30.72s12.8-30.72 30.72-30.72c18.432 0 30.72 12.8 30.72 30.72s-12.8 30.72-30.72 30.72z"  horiz-adv-x="1024" />

    
    <glyph glyph-name="yingyongchengxu-zhishe-weibaoweixiu" unicode="&#58912;" d="M512 896C230.4 896 0 665.6 0 384s230.4-512 512-512 512 230.4 512 512-230.4 512-512 512z m0-960c-249.6 0-448 198.4-448 448s198.4 448 448 448 448-198.4 448-448-198.4-448-448-448zM601.6 531.2c-44.8 96-160 134.4-256 89.6l128-128L384 403.2l-128 128c-32-70.4-19.2-160 38.4-217.6 57.6-57.6 140.8-70.4 217.6-38.4l192-185.6 89.6 89.6-192 192c25.6 51.2 25.6 108.8 0 160z"  horiz-adv-x="1024" />

    
    <glyph glyph-name="shenglvehao" unicode="&#58937;" d="M102.4 384m-102.4 0a102.4 102.4 0 1 1 204.8 0 102.4 102.4 0 1 1-204.8 0ZM512 384m-102.4 0a102.4 102.4 0 1 1 204.8 0 102.4 102.4 0 1 1-204.8 0ZM921.6 384m-102.4 0a102.4 102.4 0 1 1 204.8 0 102.4 102.4 0 1 1-204.8 0Z"  horiz-adv-x="1024" />

    
    <glyph glyph-name="bofang" unicode="&#59535;" d="M512 811.725C275.776 811.725 84.275 620.224 84.275 384c0-236.237 191.501-427.725 427.725-427.725S939.725 147.776 939.725 384 748.224 811.725 512 811.725z m162.1-452.02L473.83 244.084c-18.7-10.777-42.073 2.714-42.073 24.295V499.635c0 21.594 23.373 35.085 42.073 24.282L674.1 408.294c18.674-10.79 18.674-37.798 0-48.588zM512 880C238.08 880 16 657.933 16 384c0-273.92 222.08-496 496-496s496 222.08 496 496c0 273.933-222.08 496-496 496z m0-936.435c-246.669 0-446.643 199.974-446.643 446.643S265.33 836.838 512 836.838s446.656-199.974 446.656-446.643S758.669-56.435 512-56.435z"  horiz-adv-x="1024" />

    
    <glyph glyph-name="zanting" unicode="&#59536;" d="M512 881.075C237.466 881.075 14.912 658.522 14.912 384c0-274.534 222.554-497.075 497.088-497.075S1009.088 109.465 1009.088 384c0 274.522-222.554 497.075-497.088 497.075z m0-938.47c-247.206 0-447.616 200.41-447.616 447.616S264.781 837.837 512 837.837c247.206 0 447.616-200.397 447.616-447.616 0-247.207-200.41-447.616-447.616-447.616zM512 812.685C275.251 812.685 83.315 620.749 83.315 384c0-236.762 191.949-428.698 428.685-428.698 236.749 0 428.685 191.936 428.685 428.698 0 236.749-191.936 428.685-428.685 428.685z m-64.576-550.439a22.118 22.118 0 1 0-44.262 0V505.754a22.144 22.144 0 1 0 44.262 0v-243.508z m173.427 0a22.144 22.144 0 0 0-44.262 0V505.754a22.144 22.144 0 1 0 44.262 0v-243.508z"  horiz-adv-x="1024" />

    
    <glyph glyph-name="jigongzhengshu" unicode="&#58910;" d="M626.176 307.6096c59.8272 39.3984 101.4272 108.0832 108.416 188.3904h29.4144c15.488 0 27.9808 12.4928 27.9808 28.0064 0 15.488-12.4928 28.0064-27.9808 28.0064C764.0064 706.5856 666.7008 832 512 832c-154.7008 0-252.0064-125.3888-252.0064-280.0128-15.488 0-28.0064-12.4928-28.0064-27.9808 0-15.5136 12.5184-28.0064 28.0064-28.0064h29.4144c6.912-80.3072 48.5888-148.992 108.288-188.416-129.2032-46.7968-221.696-170.1888-221.696-315.5968A55.9616 55.9616 0 0 1 232.0128-64h559.9744a55.9616 55.9616 0 0 1 56.0128 56.0128c0 145.408-92.4928 268.8-221.7984 315.5968zM591.8208 759.3984l-16.2048-95.3856h-128.1792l-15.9232 95.0784A192.0768 192.0768 0 0 0 512 775.9872c29.696 0 56.32-6.0928 79.7952-16.5888z m-210.9952-36.3008l11.392-68.3008a56.0384 56.0384 0 0 1 55.2192-46.7968h128.0768c27.3152 0 50.6112 19.712 55.2192 46.592l11.776 69.1968c41.9072-41.088 65.536-102.4768 65.536-171.776H315.9808c0 68.992 23.296 129.9968 64.7936 171.0848zM231.9872-8.0128c0 117.3248 74.3168 223.0016 184.832 263.0144a55.7568 55.7568 0 0 1 36.48 46.08 55.8848 55.8848 0 0 1-24.8064 53.3248c-46.6944 30.7968-75.392 82.8928-81.8944 141.5936h330.5984c-6.4-58.7008-35.0976-110.7968-81.92-141.5936a55.9616 55.9616 0 0 1 11.7248-99.4048c110.6944-40.0128 185.0112-145.6896 185.0112-262.9888H232.0128z"  horiz-adv-x="1024" />

    
    <glyph glyph-name="shanchu" unicode="&#58928;" d="M517.59 874.391c-100.299 0-181.703-79.514-185.167-179.34H98.603c-25.979 0-47.235-21.099-47.235-47.236 0-25.98 21.099-47.237 47.236-47.237h52.117v-528.416c0-99.196 67.233-180.285 150.37-180.285h423.55c82.98 0 150.37 80.616 150.37 180.285V600.263h47.236c25.98 0 47.236 21.1 47.236 47.237 0 25.98-21.099 47.236-47.236 47.236H702.441C699.449 794.876 617.888 874.39 517.59 874.39z m-96.677-179.34c3.464 51.172 45.19 90.85 96.834 90.85s93.37-39.835 96.362-90.85H420.913z m-119.98-714.842c-29.444 0-61.88 37.789-61.88 91.953V600.263h547.311V71.69c0-54.007-32.436-91.954-61.88-91.954H300.933v0.473z m0 0M364.387 93.733c21.57 0 39.363 21.571 39.363 48.653V419.978c0 27.082-17.635 48.654-39.363 48.654-21.572 0-39.364-21.572-39.364-48.654v-277.592c0-26.924 17.32-48.653 39.364-48.653z m142.496 0c21.571 0 39.363 21.571 39.363 48.653V419.978c0 27.082-17.635 48.654-39.363 48.654-21.571 0-39.364-21.572-39.364-48.654v-277.592c0-26.924 17.793-48.653 39.364-48.653z m149.896 0c21.571 0 39.364 21.571 39.364 48.653V419.978c0 27.082-17.635 48.654-39.364 48.654-21.571 0-39.363-21.572-39.363-48.654v-277.592c0-26.924 17.162-48.653 39.363-48.653z m0 0"  horiz-adv-x="1024" />

    
    <glyph glyph-name="celiang-" unicode="&#59032;" d="M712.533333 832L64 179.2l243.2-243.2L960 593.066667l-247.466667 238.933333z m-554.666666-652.8l554.666666 558.933333 153.6-149.333333L307.2 29.866667l-149.333333 149.333333zM290.816 141.781333c-8.533333 0-17.066667 4.266667-21.333333 8.533334l-72.533334 72.533333c-12.8 12.8-12.8 34.133333 0 46.933333s34.133333 12.8 46.933334 0l72.533333-72.533333c12.8-12.8 12.8-34.133333 0-46.933333-8.533333-4.266667-17.066667-8.533333-25.6-8.533334M380.416 231.381333c-8.533333 0-17.066667 4.266667-21.333333 8.533334l-72.533334 72.533333c-12.8 12.8-12.8 34.133333 0 46.933333 12.8 12.8 34.133333 12.8 46.933334 0l72.533333-72.533333c12.8-12.8 12.8-34.133333 0-46.933333-8.533333-8.533333-17.066667-8.533333-25.6-8.533334M470.016 316.714667c-8.533333 0-17.066667 4.266667-21.333333 8.533333l-72.533334 72.533333c-12.8 12.8-12.8 34.133333 0 46.933334 12.8 12.8 34.133333 12.8 46.933334 0l72.533333-72.533334c12.8-12.8 12.8-34.133333 0-46.933333-8.533333-4.266667-17.066667-8.533333-25.6-8.533333M555.349333 406.314667c-8.533333 0-17.066667 4.266667-21.333333 8.533333l-72.533333 72.533333c-12.8 12.8-12.8 34.133333 0 46.933334 12.8 12.8 34.133333 12.8 46.933333 0l72.533333-72.533334c12.8-12.8 12.8-34.133333 0-46.933333-8.533333-4.266667-17.066667-8.533333-25.6-8.533333M644.949333 495.914667c-8.533333 0-17.066667 4.266667-21.333333 8.533333l-72.533333 72.533333c-12.8 12.8-12.8 34.133333 0 46.933334s34.133333 12.8 46.933333 0l72.533333-72.533334c12.8-12.8 12.8-34.133333 0-46.933333-8.533333-4.266667-17.066667-8.533333-25.6-8.533333M734.549333 585.514667c-8.533333 0-17.066667 4.266667-21.333333 8.533333l-72.533333 72.533333c-12.8 12.8-12.8 34.133333 0 46.933334s34.133333 12.8 46.933333 0l72.533333-72.533334c12.8-12.8 12.8-34.133333 0-46.933333-8.533333-8.533333-17.066667-8.533333-25.6-8.533333"  horiz-adv-x="1024" />

    
    <glyph glyph-name="chakanceshijieguohuise" unicode="&#59135;" d="M910.222222 383.601778h-56.888889V782.222222H170.666667v-796.444444h398.392889v-56.888889H170.666667a56.888889 56.888889 0 0 0-56.888889 56.888889V782.222222a56.888889 56.888889 0 0 0 56.888889 56.888889h682.666666a56.888889 56.888889 0 0 0 56.888889-56.888889v-398.620444z m-145.351111-269.141334l98.816-98.816a28.444444 28.444444 0 1 0-40.220444-40.220444l-98.816 98.816a170.666667 170.666667 0 1 0 40.220444 40.220444zM910.222222 383.544889h-56.888889V782.222222H170.666667v-796.444444h398.392889v-56.888889H170.666667a56.888889 56.888889 0 0 0-56.888889 56.888889V782.222222a56.888889 56.888889 0 0 0 56.888889 56.888889h682.666666a56.888889 56.888889 0 0 0 56.888889-56.888889v-398.620444zM625.777778 99.555556a113.777778 113.777778 0 1 1 0 227.555555 113.777778 113.777778 0 0 1 0-227.555555zM284.444444 668.444444h455.111112v-56.888888H284.444444V668.444444z m0-170.666666h227.555556v-56.888889H284.444444V497.777778z m568.888889-170.666667h56.888889v-56.888889h-56.888889v56.888889z"  horiz-adv-x="1024" />

    
    <glyph glyph-name="weixiu1" unicode="&#58966;" d="M953.512 484.536c48.84 48.84 70.304 114.672 64.464 178.472l-183.184-183.184-136 68.672-65.976 133.304L816 864.984c-63.8 5.84-129.624-15.624-178.472-64.464-61.52-61.52-79.456-149.928-54.232-227.344L240.96 201.696c-59.48 11.4-124.784-15.04-157.24-79.352a137.216 137.216 0 0 1 0-123.032c52.04-103.096 188.488-108.904 250.032-17.424 21.336 31.72 28.368 70.152 21.256 106.36l371.168 342.056c77.408-25.232 165.816-7.288 227.336 54.232zM145.888 28.712a71.656 71.656 0 0 0 0 64.24c27.168 53.824 98.408 56.864 130.544 9.096a74.032 74.032 0 0 0 0-82.432c-32.128-47.768-103.368-44.736-130.544 9.096zM138.624 833.536L10.912 705.824l178.8-178.8 31.928 31.928 134.104-134.104 63.856 63.856-134.104 134.104 31.928 31.928zM953.624 39.328l-116.576-116.576c-17.112-17.112-45.112-17.112-62.224 0L568.848 128.728c-17.112 17.112-17.112 45.112 0 62.224l116.576 116.576c17.112 17.112 45.112 17.112 62.224 0l205.976-205.976c17.112-17.112 17.112-45.112 0-62.224zM615.368 173.624a28.608 28.608 0 0 1 0-40.328l164.016-164.016a28.608 28.608 0 0 1 40.328 0 28.608 28.608 0 0 1 0 40.328L655.704 173.624a28.616 28.616 0 0 1-40.336 0zM702.752 261.008a28.608 28.608 0 0 1 0-40.328l164.016-164.016a28.608 28.608 0 0 1 40.328 0 28.608 28.608 0 0 1 0 40.328L743.088 261.008a28.616 28.616 0 0 1-40.336 0z"  horiz-adv-x="1024" />

    
    <glyph glyph-name="xiadan" unicode="&#58923;" d="M860.16-128c-10.24 0-20.48 5.12-25.6 15.36l-133.12 153.6c-5.12 10.24-5.12 20.48 0 30.72 5.12 10.24 15.36 15.36 30.72 15.36h61.44V230.4c0 15.36 15.36 30.72 30.72 30.72h76.8c15.36 0 30.72-15.36 30.72-30.72v-143.36h61.44c10.24 0 20.48-5.12 30.72-15.36 5.12-10.24 5.12-25.6 0-35.84l-133.12-148.48c-10.24-10.24-20.48-15.36-30.72-15.36zM71.68 824.32h732.16v-363.52h71.68V824.32c0 40.96-30.72 71.68-71.68 71.68H71.68C30.72 896 0 865.28 0 824.32v-732.16c0-40.96 30.72-71.68 71.68-71.68H512v71.68H71.68V824.32z m0 0M220.16 686.08h440.32v-71.68H220.16zM220.16 486.4h440.32v-71.68H220.16z"  horiz-adv-x="1027" />

    
    <glyph glyph-name="ico_shebeiguanli_shebeiweixiujingzhunyixue" unicode="&#59642;" d="M896 784a16 16 0 0 0 16-16v-768a16 16 0 0 0-16-16H128a16 16 0 0 0-16 16V768a16 16 0 0 0 16 16z m0 48H128a64 64 0 0 1-64-64v-768a64 64 0 0 1 64-64h768a64 64 0 0 1 64 64V768a64 64 0 0 1-64 64zM602.88 688h1.12l-23.04-23.04a44.8 44.8 0 0 1 0-64l36.48-36.64a45.44 45.44 0 0 1 64 0L704 587.84a56 56 0 0 0-14.88-40.32 54.4 54.4 0 0 0-39.36-14.88 78.4 78.4 0 0 0-25.76 4.32 29.92 29.92 0 0 1-9.92 1.6 32 32 0 0 1-22.56-9.44l-112-112a32 32 0 0 1-7.84-32 64 64 0 0 0-10.72-65.12 53.44 53.44 0 0 0-39.2-14.88h-0.96l23.04 23.04a45.6 45.6 0 0 1 0 64l-37.28 35.04a44.8 44.8 0 0 1-64 0L320 404.16a54.56 54.56 0 0 0 14.88 40.32 54.08 54.08 0 0 0 39.2 14.88 80 80 0 0 0 25.92-4.32 29.92 29.92 0 0 1 9.92-1.6 32 32 0 0 1 22.08 9.28l112 112a32 32 0 0 1 7.68 32 63.04 63.04 0 0 0 10.56 65.28 53.76 53.76 0 0 0 40.64 16z m0 32a86.56 86.56 0 0 1-61.92-24.32 94.4 94.4 0 0 1-18.4-97.6l-112-112a118.4 118.4 0 0 1-35.84 5.92 85.44 85.44 0 0 1-61.76-24.32 96 96 0 0 1-16-105.92 13.12 13.12 0 0 1 9.44-7.84h2.72a13.12 13.12 0 0 1 9.12 3.84l48 48a12.96 12.96 0 0 0 18.4 0L420.48 368a12.8 12.8 0 0 0 0-18.24l-48-48a12.16 12.16 0 0 1-3.52-11.68 12.8 12.8 0 0 1 7.84-9.44 117.76 117.76 0 0 1 43.84-8.8 86.56 86.56 0 0 1 61.92 24.32 94.4 94.4 0 0 1 18.4 97.6l112 112a112 112 0 0 1 35.68-5.92 86.56 86.56 0 0 1 61.92 24.32 96 96 0 0 1 16 105.76 12.8 12.8 0 0 1-9.44 7.84h-2.56a12.48 12.48 0 0 1-9.12-3.84l-48-48a12.96 12.96 0 0 0-18.24 0L603.52 624a12.96 12.96 0 0 0 0 18.4l48 48a13.12 13.12 0 0 1-4.32 21.28 119.84 119.84 0 0 1-44.32 8.32zM960 208H64v-48h896v48zM168 96h352a24 24 0 0 0 0-48h-352a24 24 0 0 0 0 48zM664 96h192a24 24 0 0 0 0-48h-192a24 24 0 0 0 0 48z"  horiz-adv-x="1024" />

    
    <glyph glyph-name="guanbi1" unicode="&#58889;" d="M0 384c0-282.624 229.376-512 512-512s512 229.376 512 512S794.624 896 512 896 0 666.624 0 384zM113.664 384c0-220.16 178.176-398.336 398.336-398.336s398.336 178.176 398.336 398.336S732.16 782.336 512 782.336 113.664 604.1600000000001 113.664 384zM722.432 585.216c10.752-10.752 10.752-29.696 0-40.448l-361.984-361.984c-10.752-10.752-29.696-10.752-40.448 0-10.752 10.752-10.752 29.696 0 40.448l361.984 361.984c11.264 10.752 29.696 10.752 40.448 0zM320.512 585.216c10.752 10.752 29.696 10.752 40.448 0l361.984-361.984c10.752-10.752 10.752-29.696 0-40.448-10.752-10.752-29.696-10.752-40.448 0L320.512 544.768c-10.752 10.752-10.752 29.696 0 40.448z"  horiz-adv-x="1024" />

    
    <glyph glyph-name="gongren" unicode="&#58888;" d="M192 46.285c-31.334-49.152-80.896-173.875-80.896-173.875h112.64V79.258c-13.107-10.65-24.576-21.914-31.744-32.973z m212.787 6.963V156.877l-69.222-12.288s-9.421-4.096-23.757-11.264h9.83v-260.71h188.826V22.732h-1.843c-81.51-0.41-103.834 30.515-103.834 30.515zM829.952 46.285c-22.323 34.611-84.992 69.427-119.808 86.835 21.709-11.878 48.742-28.058 70.86-45.875v-214.835h129.64s-49.358 124.723-80.692 173.875z m-137.011 95.027c-4.301 2.048-6.554 3.072-6.554 3.072l-70.041 12.493v-5.12h-0.205v-99.328h0.205s-24.986-29.491-105.063-30.106v-150.118h172.032V141.312h9.626zM616.14 52.429l-0.204 99.328-211.149-89.293v-9.42s22.323-30.926 104.039-30.926h2.252c80.077 0.82 105.063 30.31 105.063 30.31zM616.14 151.757l0.206 5.12V184.32c-36.045-25.805-73.524-40.755-103.015-40.755-0.614 0-1.229 0-2.048 0.205-0.614-0.205-1.229-0.205-2.048-0.205-29.9 0-67.789 15.155-104.243 41.574v-122.675l211.149 89.293zM509.03 143.565c0.615 0 1.23 0 2.048 0.205V475.546h-2.252c-74.957 0-140.698 0-192.308 19.046-9.42-27.853-15.974-52.224-20.275-71.066-0.614 3.277-1.638 6.554-2.662 9.83-4.71 14.951-11.879 27.444-19.866 35.84-8.397 9.012-17.613 13.313-25.6 10.65-15.36-4.915-20.07-33.587-10.24-64.307 9.626-30.72 29.901-51.61 45.466-46.694 0.205 0 0.205 0 0.41 0.205 13.311-77.21 65.33-143.565 121.241-183.91 36.25-26.215 74.138-41.575 104.038-41.575zM720.18 502.784c4.914-13.107 9.215-25.6 12.697-37.069 8.397 14.131 19.046 23.347 28.877 24.781 0 10.24 0 21.3 0.204 33.792v9.42c-12.288-13.106-26.214-23.142-41.779-30.924z m-426.6-69.632c1.025-3.277 1.844-6.554 2.663-9.83 4.506 19.046 10.855 43.212 20.275 71.065-17.612 6.554-33.587 15.155-47.513 26.829 1.024-17.818 2.867-35.635 4.71-52.224 7.987-8.397 15.155-20.89 19.866-35.84zM732.877 465.51c-3.687 11.674-7.783 24.167-12.698 37.07-53.657-27.034-125.542-27.24-209.1-27.24v-331.775c0.614-0.205 1.228-0.205 2.047-0.205 29.492 0 66.97 14.95 103.015 40.755 58.163 41.575 112.435 111.616 123.494 192.717 14.746 1.024 31.949 20.48 40.346 47.718 9.83 30.925 4.915 60.212-11.06 65.127-2.457 0.819-4.915 0.819-7.577 0.614-9.42-1.433-20.07-10.65-28.467-24.78zM751.104 671.744c0.41-2.253 0.82-4.3 1.024-6.554-0.205 2.253-0.614 4.301-1.024 6.554z m-25.805 72.909z m6.554-12.288a359.954 359.954 0 0 0 5.53-12.288 162.09 162.09 0 0 1-5.53 12.288z m8.192-19.251c1.433-4.096 2.867-8.192 4.3-12.493-1.228 4.3-2.662 8.397-4.3 12.493z m-2.663 6.758c0.82-1.843 1.434-3.891 2.253-5.734-0.614 1.843-1.433 3.686-2.253 5.734z m-15.36 30.515c1.23-1.843 2.253-3.891 3.277-5.734-1.024 2.048-2.048 3.891-3.277 5.734z m-28.876 37.274c3.072-3.072 5.939-6.349 8.806-9.626-2.867 3.277-5.734 6.554-8.806 9.626z m21.504-25.805c2.457-3.686 4.915-7.373 7.372-11.264-2.457 3.891-4.915 7.578-7.372 11.264z m-25.805 30.106c1.229-1.23 2.662-2.458 3.891-3.892-1.229 1.23-2.458 2.663-3.891 3.892z m-4.915 4.71c1.433-1.229 2.662-2.458 3.89-3.686-1.228 1.228-2.662 2.457-3.89 3.686z m18.432-19.046c4.3-5.12 8.396-10.24 12.083-15.565-3.687 5.325-7.783 10.445-12.083 15.565z m42.188-78.234c0.615-1.843 1.024-3.482 1.434-5.325-0.205 1.843-0.82 3.687-1.434 5.325z m7.783-35.43l0.614-5.53a25.42 25.42 0 0 1-0.614 5.53z m2.253-22.938c0-1.843 0.204-3.482 0.204-5.325 0 1.843-0.204 3.482-0.204 5.325zM664.064 812.851z m89.907-163.225c0.205-2.253 0.41-4.506 0.41-6.759 0 2.253-0.205 4.506-0.41 6.759zM557.773 857.498l0.205-208.692h0.204c2.048-19.865 23.143-35.635 49.152-35.635s47.104 15.77 49.152 35.635h0.205V818.176c-28.262 18.842-61.44 32.154-98.509 39.322-0.41 13.107-9.216 24.576-22.323 31.334 12.903-6.758 21.504-18.227 21.914-31.334zM754.79 633.65v-6.963c0.205 2.253 0.205 4.71 0 6.963z m-83.968 174.08c0.41-0.41 0.82-0.614 1.434-1.024-0.614 0.41-1.024 0.82-1.434 1.024z m75.776-114.893c1.23-4.3 2.253-8.601 3.072-12.902a617.763 617.763 0 0 1-3.072 12.902zM679.014 800.973c1.434-1.229 2.868-2.458 4.301-3.891-1.433 1.433-2.867 2.662-4.3 3.89z m70.861-122.47c0.41-1.844 0.615-3.482 1.024-5.325-0.205 1.638-0.614 3.481-1.024 5.324zM674.714 804.658c0.819-0.614 1.638-1.229 2.457-2.048-1.024 0.82-1.843 1.434-2.457 2.048z m78.643-148.275c0.205-1.843 0.41-3.891 0.614-5.734-0.205 2.048-0.41 3.89-0.614 5.734zM316.518 494.592c51.61-19.046 117.35-19.046 192.308-19.046-116.327 0-210.33 0-263.988 71.065-6.348 16.384 18.023 55.706 18.023 80.077 0 84.378 37.273 150.733 98.304 191.488v-169.165h0.205c0-0.41-0.205-0.819-0.205-1.433 0-21.3 21.504-38.503 48.742-38.503s49.152 17.203 49.152 38.503c0 0.41-0.205 0.819-0.205 1.433h0.205V857.293C342.12 834.56 262.656 749.773 262.656 626.688c0-24.371-24.371-63.693-17.818-80.077 7.373-9.625 15.36-18.022 24.167-25.19 14.131-11.674 29.9-20.48 47.513-26.829zM459.264 648.806c-0.205-0.41 0-0.819 0-1.433 0-21.3-21.914-38.503-49.152-38.503s-48.742 17.204-48.742 38.503c0 0.41 0.204 0.819 0.204 1.433h-0.204V818.176c-61.03-40.755-98.304-107.11-98.304-191.488 0-24.371-24.372-63.693-18.023-80.077 53.658-71.065 147.661-71.065 263.987-71.065h2.253c83.559 0 155.648 0.204 209.101 27.238 15.565 7.782 29.491 17.818 41.574 30.72 3.892 4.096 7.578 8.397 11.06 13.107 6.144 15.36-14.95 50.995-17.613 75.367-0.205 1.638-0.205 3.276-0.205 4.71v9.011c0 1.843-0.205 3.482-0.205 5.325v1.843c-0.205 2.253-0.205 4.506-0.41 6.759 0 0.41 0 0.819-0.204 1.024-0.205 1.843-0.41 3.89-0.615 5.734 0 0.614-0.204 1.229-0.204 1.843l-0.615 5.53c0 0.41-0.205 0.819-0.205 1.229-0.41 2.252-0.614 4.505-1.024 6.553 0 0.41-0.204 0.82-0.204 1.434-0.41 1.843-0.615 3.481-1.024 5.325-0.205 0.614-0.205 1.024-0.41 1.638-0.82 4.3-1.843 8.602-3.072 12.902-0.205 0.41-0.205 0.82-0.41 1.23-0.41 1.842-1.024 3.48-1.433 5.324-0.205 0.41-0.205 0.82-0.41 1.024-1.229 4.3-2.662 8.397-4.3 12.493-0.205 0.41-0.205 0.614-0.41 1.024-0.82 1.843-1.434 3.891-2.253 5.734 0 0 0 0.205-0.205 0.205a162.09 162.09 0 0 1-5.53 12.288c0 0.205-0.204 0.41-0.204 0.614-2.048 4.096-4.096 7.988-6.144 11.879-1.024 1.843-2.253 3.891-3.277 5.734 0 0 0 0.205-0.205 0.205-2.253 3.891-4.71 7.578-7.373 11.264 0 0 0 0.205-0.204 0.205-3.892 5.325-7.783 10.65-12.084 15.565l-0.41 0.41c-2.866 3.276-5.734 6.553-8.806 9.625l-0.41 0.41c-1.228 1.228-2.457 2.662-3.89 3.89l-1.024 1.025c-1.23 1.228-2.663 2.457-3.892 3.686l-0.614 0.614c-1.434 1.23-2.867 2.458-4.3 3.892-0.615 0.614-1.23 1.228-2.049 1.638-0.819 0.614-1.638 1.434-2.457 2.048-0.82 0.614-1.639 1.434-2.458 2.048-0.41 0.41-0.82 0.614-1.434 1.024-2.252 1.843-4.505 3.482-6.758 5.12-2.458 1.843-4.915 3.482-7.373 5.12v-169.165h-0.205c-2.048-19.865-23.142-35.635-49.152-35.635s-47.104 15.77-49.152 35.635h-0.204V857.498h-0.205c-0.41 13.107-9.011 24.37-22.119 31.13-7.782 4.095-16.998 6.348-27.238 6.348-26.624 0-48.538-16.794-49.152-37.478v-208.692z m269.107-111.001c0-22.119-99.123-39.936-221.389-39.936s-221.388 17.817-221.388 39.936 99.123 39.936 221.388 39.936 221.39-18.023 221.39-39.936zM285.594 537.805a221.389 39.936 0 1 1 442.777 0 221.389 39.936 0 1 1-442.777 0zM312.013 133.12h-1.434c-22.937-11.469-58.777-30.72-86.63-52.634V-128h97.894V133.12h-9.83z m398.131-0.205c-5.734 3.072-11.06 5.94-15.77 8.397H683.11v-269.107h97.895V87.04c-22.119 18.022-49.152 34.202-70.861 45.875z"  horiz-adv-x="1024" />

    
    <glyph glyph-name="renyuanluru" unicode="&#60001;" d="M714.254685 225.603059c12.139197 12.269726 12.008668 32.110134-0.261058 44.249331-37.85341 37.331294-80.536393 63.567623-130.529 80.275335-1.957935 0.652645-4.046399 1.30529-6.134863 1.957935 19.057234 11.617081 36.678649 25.453155 52.864245 41.508221 52.864245 52.864245 81.972212 123.088846 81.972212 197.881963s-29.107967 145.017718-81.972212 197.881964S507.105163 871.330019 432.312046 871.330019 287.294328 842.222052 234.430083 789.357808 152.457871 666.268961 152.457871 591.475844c0-49.992607 13.313958-98.940982 38.636584-141.885022 8.745443-14.880306 27.933206-19.840408 42.944041-11.094965 14.880306 8.745443 19.840408 27.933206 11.094965 42.944041-19.57935 33.154366-30.02167 71.268834-30.02167 110.035946 0 119.825621 97.374634 217.200255 217.200255 217.200255 119.825621 0 217.200255-97.374634 217.200255-217.200255 0-119.825621-97.374634-217.200255-217.200255-217.200254-4.437986 0-8.745443-0.913703-12.661313-2.741109-38.114468-1.30529-74.271001-7.962269-107.555896-20.101466-35.764946-12.922371-69.18037-32.501721-99.593626-58.085405-55.083238-46.207266-101.943149-113.038113-143.320841-204.408413-7.048566-15.794009-0.130529-34.329127 15.532951-41.508222 4.176928-1.827406 8.614914-2.871638 12.922371-2.871638 11.878139 0 23.234162 6.918037 28.455321 18.404589 77.01211 169.948757 171.515105 245.916635 305.959975 245.916635 105.467431 0 178.824729-25.844742 237.693308-83.930147 12.530784-11.878139 32.371192-11.74761 44.510389 0.652645zM967.480943 280.033652l-48.948374 58.346463c-2.61058 3.132696-7.309624 3.524283-10.44232 0.913703l-45.554621-38.244997c-3.132696-2.61058-3.524283-7.309624-0.913703-10.44232l48.948375-58.346463c2.61058-3.132696 7.309624-3.524283 10.44232-0.913703l45.55462 38.244997c3.132696 2.61058 3.524283 7.309624 0.913703 10.44232zM850.52696 281.338942c-2.61058 3.132696-7.309624 3.524283-10.44232 0.913703l-211.456979-177.38891c-3.132696-2.61058-7.440153-7.701211-9.659146-11.094965l-72.835182-117.345571c-2.218993-3.524283-0.913703-4.960102 2.871638-3.393753l124.655195 53.777947c3.785341 1.566348 9.398088 5.090631 12.530784 7.701211l212.240153 178.041555c3.132696 2.61058 3.524283 7.309624 0.913703 10.44232l-48.817846 58.346463z"  horiz-adv-x="1024" />

    
    <glyph glyph-name="bofang1" unicode="&#58881;" d="M512 896C229.244576 896 0 666.771567 0 384c0-282.755424 229.244576-512 512-512 282.758115 0 512 229.244576 512 512C1024 666.771567 794.755424 896 512 896z m0-966.636392c-254.626513 0-461.053174 206.42397-461.053174 461.047793 0 254.621132 206.426661 461.03165 461.053174 461.03165 254.626513 0 461.061245-206.42128 461.061245-461.047793 0-254.623822-206.437423-461.03165-461.061245-461.03165z m0 0M512 826.585756c-244.432305 0-442.583066-198.150761-442.583066-442.583066s198.150761-442.583066 442.583066-442.583065 442.583066 198.150761 442.583066 442.583065-198.153452 442.583066-442.583066 442.583066z m128.066589-630.090309l-130.950778 126.589518c-52.38354-21.822439-109.128339-13.09454-148.414648 26.18908-39.28631 39.28631-48.01959 100.397749-26.18908 148.414648l87.300519-87.300518 61.111439 61.111439-87.300518 87.303209c65.475389 30.55572 144.050699 4.36664 174.603728-61.111439 17.46118-34.919669 17.46118-74.205979 0-109.128339l130.953468-130.953469-61.11413-61.114129z"  horiz-adv-x="1024" />

    
    <glyph glyph-name="weibiaoti-" unicode="&#58884;" d="M0 896h1024v-1024H0zM808.420885 624.445408H670.129844V661.714542a7.337072 7.337072 0 0 1-7.337071 7.480623h-119.72187l14.390231 19.42729h37.986891a7.483813 7.483813 0 0 1 0 14.39023h-26.043414l12.37413 17.838655c1.0559 1.06228 1.754517 2.418044 2.01291 3.888648V771.07838a7.346642 7.346642 0 0 1-7.911277 7.340262h-96.128399a7.340262 7.340262 0 0 1-7.340262-7.340262v-10.21448h-48.638405a36.120723 36.120723 0 1 1 0-71.951152h48.638405v-19.714393H215.263302a7.337072 7.337072 0 0 1-7.340262-7.480623v-559.627165a7.337072 7.337072 0 0 1 7.340262-7.340262h57.560922v-28.777271a7.337072 7.337072 0 0 1 7.337072-7.340261h82.022081a7.337072 7.337072 0 0 1 7.340262 7.340261v28.777271h284.636909v-28.777271a7.337072 7.337072 0 0 1 7.337072-7.340261h81.447875a7.343452 7.343452 0 0 1 7.343452 7.340261v28.777271h57.557732c4.04815 0 7.337072 3.285732 7.337072 7.340262v514.871028a7.337072 7.337072 0 0 1-6.762866 7.483813zM487.238978 764.028411h81.297944v-36.83848l-44.175551-57.557732h-37.125583V764.028411z m-63.46248-60.581881a21.583751 21.583751 0 0 0 0 43.170691h48.638405V703.44972h-48.638405z m-55.831925-49.07225h287.801421v-69.931863h-287.801421V654.37428z m0-84.755937h287.801421v-277.583751h-287.801421v277.583751z m0-292.404636h287.801421v-69.938243h-287.801421v69.938243zM222.750305 654.37428h130.800848v-447.098816H222.750305V654.37428z m132.09919-581.067364H288.225695v21.730492h66.6238v-21.730492z m380.758929 0h-66.770542v21.730492h66.770542v-21.730492z m65.331838 36.117533H222.750305v83.03013h578.189957v-83.03013z m0 97.420361H670.129844V609.764885h130.520125l0.290293-402.920075z m0 0M619.338168 502.417146h-214.988959a7.337072 7.337072 0 0 1-7.337072-7.337071v-96.415502c0-1.945919 0.775178-3.808897 2.150081-5.1838a7.327502 7.327502 0 0 1 5.186991-2.153271h88.931688l28.777271-29.928873c1.457844-1.448274 3.413333-2.271302 5.467714-2.303202h92.099389a7.337072 7.337072 0 0 1 7.337072 7.480623V495.076885a7.343452 7.343452 0 0 1-7.624175 7.340261z m-6.766056-128.504025H530.40648l-28.780461 29.935253a7.930417 7.930417 0 0 1-5.467714 2.303202H411.833022V487.739813h200.74228v-113.826692z m0 0M479.755165 373.913121h-75.402766a7.480623 7.480623 0 0 1 0-14.38704h75.402766a7.483813 7.483813 0 1 1 0 14.38704z m217.285782-38.564286h77.422056a7.337072 7.337072 0 0 1 7.337072 7.343452v200.592349a7.337072 7.337072 0 0 1-7.337072 7.340261h-77.422056a7.337072 7.337072 0 0 1-7.477433-7.343452v-200.592348a7.333882 7.333882 0 0 1 7.477433-7.340262z m7.343452 200.451987h62.594791v-185.774654h-62.594791v185.774654z m-379.613707 48.641595H252.825919a7.346642 7.346642 0 0 1-7.340262-7.487003v-234.266317a7.340262 7.340262 0 0 1 7.340262-7.343452h71.944773a7.346642 7.346642 0 0 1 7.340261 7.343452v234.266317a7.333882 7.333882 0 0 1-2.10223 5.285882 7.317931 7.317931 0 0 1-5.238031 2.201121z m-7.480623-234.413059H259.729146v219.588985h57.560923v-219.588985z m0 0M754.314766 382.98238h-23.166006a7.490193 7.490193 0 0 1-8.16329-11.522392 7.490193 7.490193 0 0 1 8.16329-2.867838h23.166006a7.483813 7.483813 0 1 1 0 14.39023z m0 30.506268h-23.166006a7.477433 7.477433 0 1 1-8.16329-11.519203 7.490193 7.490193 0 0 1 8.16329-2.871028h23.166006a7.487003 7.487003 0 1 1 0 14.390231z m0 30.506268h-23.166006a7.477433 7.477433 0 1 1 0-14.387041h23.166006a7.483813 7.483813 0 1 1 0 14.387041z m0 0"  horiz-adv-x="1024" />

    
    <glyph glyph-name="icon-test" unicode="&#58886;" d="M0 896h1024v-1024H0zM808.420885 624.445408H670.129844V661.714542a7.337072 7.337072 0 0 1-7.337071 7.480623h-119.72187l14.390231 19.42729h37.986891a7.483813 7.483813 0 0 1 0 14.39023h-26.043414l12.37413 17.838655c1.0559 1.06228 1.754517 2.418044 2.01291 3.888648V771.07838a7.346642 7.346642 0 0 1-7.911277 7.340262h-96.128399a7.340262 7.340262 0 0 1-7.340262-7.340262v-10.21448h-48.638405a36.120723 36.120723 0 1 1 0-71.951152h48.638405v-19.714393H215.263302a7.337072 7.337072 0 0 1-7.340262-7.480623v-559.627165a7.337072 7.337072 0 0 1 7.340262-7.340262h57.560922v-28.777271a7.337072 7.337072 0 0 1 7.337072-7.340261h82.022081a7.337072 7.337072 0 0 1 7.340262 7.340261v28.777271h284.636909v-28.777271a7.337072 7.337072 0 0 1 7.337072-7.340261h81.447875a7.343452 7.343452 0 0 1 7.343452 7.340261v28.777271h57.557732c4.04815 0 7.337072 3.285732 7.337072 7.340262v514.871028a7.337072 7.337072 0 0 1-6.762866 7.483813zM487.238978 764.028411h81.297944v-36.83848l-44.175551-57.557732h-37.125583V764.028411z m-63.46248-60.581881a21.583751 21.583751 0 0 0 0 43.170691h48.638405V703.44972h-48.638405z m-55.831925-49.07225h287.801421v-69.931863h-287.801421V654.37428z m0-84.755937h287.801421v-277.583751h-287.801421v277.583751z m0-292.404636h287.801421v-69.938243h-287.801421v69.938243zM222.750305 654.37428h130.800848v-447.098816H222.750305V654.37428z m132.09919-581.067364H288.225695v21.730492h66.6238v-21.730492z m380.758929 0h-66.770542v21.730492h66.770542v-21.730492z m65.331838 36.117533H222.750305v83.03013h578.189957v-83.03013z m0 97.420361H670.129844V609.764885h130.520125l0.290293-402.920075z m0 0M619.338168 502.417146h-214.988959a7.337072 7.337072 0 0 1-7.337072-7.337071v-96.415502c0-1.945919 0.775178-3.808897 2.150081-5.1838a7.327502 7.327502 0 0 1 5.186991-2.153271h88.931688l28.777271-29.928873c1.457844-1.448274 3.413333-2.271302 5.467714-2.303202h92.099389a7.337072 7.337072 0 0 1 7.337072 7.480623V495.076885a7.343452 7.343452 0 0 1-7.624175 7.340261z m-6.766056-128.504025H530.40648l-28.780461 29.935253a7.930417 7.930417 0 0 1-5.467714 2.303202H411.833022V487.739813h200.74228v-113.826692z m0 0M479.755165 373.913121h-75.402766a7.480623 7.480623 0 0 1 0-14.38704h75.402766a7.483813 7.483813 0 1 1 0 14.38704z m217.285782-38.564286h77.422056a7.337072 7.337072 0 0 1 7.337072 7.343452v200.592349a7.337072 7.337072 0 0 1-7.337072 7.340261h-77.422056a7.337072 7.337072 0 0 1-7.477433-7.343452v-200.592348a7.333882 7.333882 0 0 1 7.477433-7.340262z m7.343452 200.451987h62.594791v-185.774654h-62.594791v185.774654z m-379.613707 48.641595H252.825919a7.346642 7.346642 0 0 1-7.340262-7.487003v-234.266317a7.340262 7.340262 0 0 1 7.340262-7.343452h71.944773a7.346642 7.346642 0 0 1 7.340261 7.343452v234.266317a7.333882 7.333882 0 0 1-2.10223 5.285882 7.317931 7.317931 0 0 1-5.238031 2.201121z m-7.480623-234.413059H259.729146v219.588985h57.560923v-219.588985z m0 0M754.314766 382.98238h-23.166006a7.490193 7.490193 0 0 1-8.16329-11.522392 7.490193 7.490193 0 0 1 8.16329-2.867838h23.166006a7.483813 7.483813 0 1 1 0 14.39023z m0 30.506268h-23.166006a7.477433 7.477433 0 1 1-8.16329-11.519203 7.490193 7.490193 0 0 1 8.16329-2.871028h23.166006a7.487003 7.487003 0 1 1 0 14.390231z m0 30.506268h-23.166006a7.477433 7.477433 0 1 1 0-14.387041h23.166006a7.483813 7.483813 0 1 1 0 14.387041z m0 0"  horiz-adv-x="1024" />

    
    <glyph glyph-name="icon-test1" unicode="&#58890;" d="M0 896h1024v-1024H0zM808.420885 624.445408H670.129844V661.714542a7.337072 7.337072 0 0 1-7.337071 7.480623h-119.72187l14.390231 19.42729h37.986891a7.483813 7.483813 0 0 1 0 14.39023h-26.043414l12.37413 17.838655c1.0559 1.06228 1.754517 2.418044 2.01291 3.888648V771.07838a7.346642 7.346642 0 0 1-7.911277 7.340262h-96.128399a7.340262 7.340262 0 0 1-7.340262-7.340262v-10.21448h-48.638405a36.120723 36.120723 0 1 1 0-71.951152h48.638405v-19.714393H215.263302a7.337072 7.337072 0 0 1-7.340262-7.480623v-559.627165a7.337072 7.337072 0 0 1 7.340262-7.340262h57.560922v-28.777271a7.337072 7.337072 0 0 1 7.337072-7.340261h82.022081a7.337072 7.337072 0 0 1 7.340262 7.340261v28.777271h284.636909v-28.777271a7.337072 7.337072 0 0 1 7.337072-7.340261h81.447875a7.343452 7.343452 0 0 1 7.343452 7.340261v28.777271h57.557732c4.04815 0 7.337072 3.285732 7.337072 7.340262v514.871028a7.337072 7.337072 0 0 1-6.762866 7.483813zM487.238978 764.028411h81.297944v-36.83848l-44.175551-57.557732h-37.125583V764.028411z m-63.46248-60.581881a21.583751 21.583751 0 0 0 0 43.170691h48.638405V703.44972h-48.638405z m-55.831925-49.07225h287.801421v-69.931863h-287.801421V654.37428z m0-84.755937h287.801421v-277.583751h-287.801421v277.583751z m0-292.404636h287.801421v-69.938243h-287.801421v69.938243zM222.750305 654.37428h130.800848v-447.098816H222.750305V654.37428z m132.09919-581.067364H288.225695v21.730492h66.6238v-21.730492z m380.758929 0h-66.770542v21.730492h66.770542v-21.730492z m65.331838 36.117533H222.750305v83.03013h578.189957v-83.03013z m0 97.420361H670.129844V609.764885h130.520125l0.290293-402.920075z m0 0M619.338168 502.417146h-214.988959a7.337072 7.337072 0 0 1-7.337072-7.337071v-96.415502c0-1.945919 0.775178-3.808897 2.150081-5.1838a7.327502 7.327502 0 0 1 5.186991-2.153271h88.931688l28.777271-29.928873c1.457844-1.448274 3.413333-2.271302 5.467714-2.303202h92.099389a7.337072 7.337072 0 0 1 7.337072 7.480623V495.076885a7.343452 7.343452 0 0 1-7.624175 7.340261z m-6.766056-128.504025H530.40648l-28.780461 29.935253a7.930417 7.930417 0 0 1-5.467714 2.303202H411.833022V487.739813h200.74228v-113.826692z m0 0M479.755165 373.913121h-75.402766a7.480623 7.480623 0 0 1 0-14.38704h75.402766a7.483813 7.483813 0 1 1 0 14.38704z m217.285782-38.564286h77.422056a7.337072 7.337072 0 0 1 7.337072 7.343452v200.592349a7.337072 7.337072 0 0 1-7.337072 7.340261h-77.422056a7.337072 7.337072 0 0 1-7.477433-7.343452v-200.592348a7.333882 7.333882 0 0 1 7.477433-7.340262z m7.343452 200.451987h62.594791v-185.774654h-62.594791v185.774654z m-379.613707 48.641595H252.825919a7.346642 7.346642 0 0 1-7.340262-7.487003v-234.266317a7.340262 7.340262 0 0 1 7.340262-7.343452h71.944773a7.346642 7.346642 0 0 1 7.340261 7.343452v234.266317a7.333882 7.333882 0 0 1-2.10223 5.285882 7.317931 7.317931 0 0 1-5.238031 2.201121z m-7.480623-234.413059H259.729146v219.588985h57.560923v-219.588985z m0 0M754.314766 382.98238h-23.166006a7.490193 7.490193 0 0 1-8.16329-11.522392 7.490193 7.490193 0 0 1 8.16329-2.867838h23.166006a7.483813 7.483813 0 1 1 0 14.39023z m0 30.506268h-23.166006a7.477433 7.477433 0 1 1-8.16329-11.519203 7.490193 7.490193 0 0 1 8.16329-2.871028h23.166006a7.487003 7.487003 0 1 1 0 14.390231z m0 30.506268h-23.166006a7.477433 7.477433 0 1 1 0-14.387041h23.166006a7.483813 7.483813 0 1 1 0 14.387041z m0 0"  horiz-adv-x="1024" />

    
    <glyph glyph-name="icon-test2" unicode="&#58891;" d="M0 896h1024v-1024H0zM808.420885 624.445408H670.129844V661.714542a7.337072 7.337072 0 0 1-7.337071 7.480623h-119.72187l14.390231 19.42729h37.986891a7.483813 7.483813 0 0 1 0 14.39023h-26.043414l12.37413 17.838655c1.0559 1.06228 1.754517 2.418044 2.01291 3.888648V771.07838a7.346642 7.346642 0 0 1-7.911277 7.340262h-96.128399a7.340262 7.340262 0 0 1-7.340262-7.340262v-10.21448h-48.638405a36.120723 36.120723 0 1 1 0-71.951152h48.638405v-19.714393H215.263302a7.337072 7.337072 0 0 1-7.340262-7.480623v-559.627165a7.337072 7.337072 0 0 1 7.340262-7.340262h57.560922v-28.777271a7.337072 7.337072 0 0 1 7.337072-7.340261h82.022081a7.337072 7.337072 0 0 1 7.340262 7.340261v28.777271h284.636909v-28.777271a7.337072 7.337072 0 0 1 7.337072-7.340261h81.447875a7.343452 7.343452 0 0 1 7.343452 7.340261v28.777271h57.557732c4.04815 0 7.337072 3.285732 7.337072 7.340262v514.871028a7.337072 7.337072 0 0 1-6.762866 7.483813zM487.238978 764.028411h81.297944v-36.83848l-44.175551-57.557732h-37.125583V764.028411z m-63.46248-60.581881a21.583751 21.583751 0 0 0 0 43.170691h48.638405V703.44972h-48.638405z m-55.831925-49.07225h287.801421v-69.931863h-287.801421V654.37428z m0-84.755937h287.801421v-277.583751h-287.801421v277.583751z m0-292.404636h287.801421v-69.938243h-287.801421v69.938243zM222.750305 654.37428h130.800848v-447.098816H222.750305V654.37428z m132.09919-581.067364H288.225695v21.730492h66.6238v-21.730492z m380.758929 0h-66.770542v21.730492h66.770542v-21.730492z m65.331838 36.117533H222.750305v83.03013h578.189957v-83.03013z m0 97.420361H670.129844V609.764885h130.520125l0.290293-402.920075z m0 0M619.338168 502.417146h-214.988959a7.337072 7.337072 0 0 1-7.337072-7.337071v-96.415502c0-1.945919 0.775178-3.808897 2.150081-5.1838a7.327502 7.327502 0 0 1 5.186991-2.153271h88.931688l28.777271-29.928873c1.457844-1.448274 3.413333-2.271302 5.467714-2.303202h92.099389a7.337072 7.337072 0 0 1 7.337072 7.480623V495.076885a7.343452 7.343452 0 0 1-7.624175 7.340261z m-6.766056-128.504025H530.40648l-28.780461 29.935253a7.930417 7.930417 0 0 1-5.467714 2.303202H411.833022V487.739813h200.74228v-113.826692z m0 0M479.755165 373.913121h-75.402766a7.480623 7.480623 0 0 1 0-14.38704h75.402766a7.483813 7.483813 0 1 1 0 14.38704z m217.285782-38.564286h77.422056a7.337072 7.337072 0 0 1 7.337072 7.343452v200.592349a7.337072 7.337072 0 0 1-7.337072 7.340261h-77.422056a7.337072 7.337072 0 0 1-7.477433-7.343452v-200.592348a7.333882 7.333882 0 0 1 7.477433-7.340262z m7.343452 200.451987h62.594791v-185.774654h-62.594791v185.774654z m-379.613707 48.641595H252.825919a7.346642 7.346642 0 0 1-7.340262-7.487003v-234.266317a7.340262 7.340262 0 0 1 7.340262-7.343452h71.944773a7.346642 7.346642 0 0 1 7.340261 7.343452v234.266317a7.333882 7.333882 0 0 1-2.10223 5.285882 7.317931 7.317931 0 0 1-5.238031 2.201121z m-7.480623-234.413059H259.729146v219.588985h57.560923v-219.588985z m0 0M754.314766 382.98238h-23.166006a7.490193 7.490193 0 0 1-8.16329-11.522392 7.490193 7.490193 0 0 1 8.16329-2.867838h23.166006a7.483813 7.483813 0 1 1 0 14.39023z m0 30.506268h-23.166006a7.477433 7.477433 0 1 1-8.16329-11.519203 7.490193 7.490193 0 0 1 8.16329-2.871028h23.166006a7.487003 7.487003 0 1 1 0 14.390231z m0 30.506268h-23.166006a7.477433 7.477433 0 1 1 0-14.387041h23.166006a7.483813 7.483813 0 1 1 0 14.387041z m0 0"  horiz-adv-x="1024" />

    
    <glyph glyph-name="icon-test3" unicode="&#58892;" d="M0 896h1024v-1024H0zM808.420885 624.445408H670.129844V661.714542a7.337072 7.337072 0 0 1-7.337071 7.480623h-119.72187l14.390231 19.42729h37.986891a7.483813 7.483813 0 0 1 0 14.39023h-26.043414l12.37413 17.838655c1.0559 1.06228 1.754517 2.418044 2.01291 3.888648V771.07838a7.346642 7.346642 0 0 1-7.911277 7.340262h-96.128399a7.340262 7.340262 0 0 1-7.340262-7.340262v-10.21448h-48.638405a36.120723 36.120723 0 1 1 0-71.951152h48.638405v-19.714393H215.263302a7.337072 7.337072 0 0 1-7.340262-7.480623v-559.627165a7.337072 7.337072 0 0 1 7.340262-7.340262h57.560922v-28.777271a7.337072 7.337072 0 0 1 7.337072-7.340261h82.022081a7.337072 7.337072 0 0 1 7.340262 7.340261v28.777271h284.636909v-28.777271a7.337072 7.337072 0 0 1 7.337072-7.340261h81.447875a7.343452 7.343452 0 0 1 7.343452 7.340261v28.777271h57.557732c4.04815 0 7.337072 3.285732 7.337072 7.340262v514.871028a7.337072 7.337072 0 0 1-6.762866 7.483813zM487.238978 764.028411h81.297944v-36.83848l-44.175551-57.557732h-37.125583V764.028411z m-63.46248-60.581881a21.583751 21.583751 0 0 0 0 43.170691h48.638405V703.44972h-48.638405z m-55.831925-49.07225h287.801421v-69.931863h-287.801421V654.37428z m0-84.755937h287.801421v-277.583751h-287.801421v277.583751z m0-292.404636h287.801421v-69.938243h-287.801421v69.938243zM222.750305 654.37428h130.800848v-447.098816H222.750305V654.37428z m132.09919-581.067364H288.225695v21.730492h66.6238v-21.730492z m380.758929 0h-66.770542v21.730492h66.770542v-21.730492z m65.331838 36.117533H222.750305v83.03013h578.189957v-83.03013z m0 97.420361H670.129844V609.764885h130.520125l0.290293-402.920075z m0 0M619.338168 502.417146h-214.988959a7.337072 7.337072 0 0 1-7.337072-7.337071v-96.415502c0-1.945919 0.775178-3.808897 2.150081-5.1838a7.327502 7.327502 0 0 1 5.186991-2.153271h88.931688l28.777271-29.928873c1.457844-1.448274 3.413333-2.271302 5.467714-2.303202h92.099389a7.337072 7.337072 0 0 1 7.337072 7.480623V495.076885a7.343452 7.343452 0 0 1-7.624175 7.340261z m-6.766056-128.504025H530.40648l-28.780461 29.935253a7.930417 7.930417 0 0 1-5.467714 2.303202H411.833022V487.739813h200.74228v-113.826692z m0 0M479.755165 373.913121h-75.402766a7.480623 7.480623 0 0 1 0-14.38704h75.402766a7.483813 7.483813 0 1 1 0 14.38704z m217.285782-38.564286h77.422056a7.337072 7.337072 0 0 1 7.337072 7.343452v200.592349a7.337072 7.337072 0 0 1-7.337072 7.340261h-77.422056a7.337072 7.337072 0 0 1-7.477433-7.343452v-200.592348a7.333882 7.333882 0 0 1 7.477433-7.340262z m7.343452 200.451987h62.594791v-185.774654h-62.594791v185.774654z m-379.613707 48.641595H252.825919a7.346642 7.346642 0 0 1-7.340262-7.487003v-234.266317a7.340262 7.340262 0 0 1 7.340262-7.343452h71.944773a7.346642 7.346642 0 0 1 7.340261 7.343452v234.266317a7.333882 7.333882 0 0 1-2.10223 5.285882 7.317931 7.317931 0 0 1-5.238031 2.201121z m-7.480623-234.413059H259.729146v219.588985h57.560923v-219.588985z m0 0M754.314766 382.98238h-23.166006a7.490193 7.490193 0 0 1-8.16329-11.522392 7.490193 7.490193 0 0 1 8.16329-2.867838h23.166006a7.483813 7.483813 0 1 1 0 14.39023z m0 30.506268h-23.166006a7.477433 7.477433 0 1 1-8.16329-11.519203 7.490193 7.490193 0 0 1 8.16329-2.871028h23.166006a7.487003 7.487003 0 1 1 0 14.390231z m0 30.506268h-23.166006a7.477433 7.477433 0 1 1 0-14.387041h23.166006a7.483813 7.483813 0 1 1 0 14.387041z m0 0"  horiz-adv-x="1024" />

    
    <glyph glyph-name="D" unicode="&#58893;" d="M278.944253 682.833914c12.462874 0 22.711636 10.527223 22.711636 23.547021V849.870386c0 13.019798-10.112926 23.54023-22.711636 23.54023-12.462874 0-22.718427-10.520432-22.718427-23.54023v-143.489451c0-13.019798 10.106134-23.547022 22.718427-23.547021z m566.880793 0c12.462874 0 22.711636 10.527223 22.711635 23.547021V849.870386c0 13.019798-10.112926 23.54023-22.711635 23.54023-12.469666 0-22.718427-10.520432-22.718427-23.54023v-143.489451c0-13.019798 10.248761-23.547022 22.718427-23.547021zM377.411147 752.08946h374.504274a22.752386 22.752386 0 0 1 22.854263 22.711636c0 12.462874-10.248761 22.718427-22.854263 22.718427H377.411147a22.76597 22.76597 0 0 1-22.854263-22.718427 22.76597 22.76597 0 0 1 22.854263-22.711636z m0 0M1086.260037 797.655358v-0.135835h-140.996876c-12.462874 0-22.711636-9.00587-22.711636-20.219061 0-11.077356 10.106134-20.225852 22.711636-20.225852h140.996876v-833.633842c0-5.956371-5.671117-11.077356-12.462874-11.077356H57.892937c-6.791757 0-12.469666 5.120985-12.469666 11.077356V757.067818h141.411173c12.462874 0 22.711636 8.999078 22.711636 20.225853 0 11.077356-10.112926 20.219061-22.711636 20.21906H45.287436v0.142627H0v-874.078755c0-28.389544 25.89697-51.522269 57.892937-51.522269h1015.897434c31.85334 0 57.892937 23.132724 57.892937 51.522269V797.655358h-45.423271z m0 0M385.54088 68.152735V581.847278h146.5797c77.819952 0 142.538605-22.664093 194.169542-67.985488 51.624145-45.321395 77.432822-106.121204 77.432822-182.392635 0-79.592601-25.815468-143.373991-77.432822-191.350963-51.630937-47.976972-118.122238-71.965458-199.473904-71.965457H385.54088z m66.321507 454.660591v-395.966227h74.614243c65.221243 0 116.125462 17.794403 152.712657 53.390002 36.587195 35.595599 54.884189 85.447095 54.884189 149.561282 0 64.114186-18.799583 112.308494-56.378375 144.589716-37.585583 32.274429-87.002408 48.418436-148.23689 48.418435H451.862387z"  horiz-adv-x="1131" />

    
    <glyph glyph-name="M" unicode="&#58894;" d="M278.944253 682.833914c12.462874 0 22.711636 10.527223 22.711636 23.547021V849.870386c0 13.019798-10.112926 23.54023-22.711636 23.54023-12.462874 0-22.718427-10.520432-22.718427-23.54023v-143.489451c0-13.019798 10.106134-23.547022 22.718427-23.547021z m566.880793 0c12.462874 0 22.711636 10.527223 22.711635 23.547021V849.870386c0 13.019798-10.112926 23.54023-22.711635 23.54023-12.469666 0-22.718427-10.520432-22.718427-23.54023v-143.489451c0-13.019798 10.248761-23.547022 22.718427-23.547021zM377.411147 752.08946h374.504274a22.752386 22.752386 0 0 1 22.854263 22.711636c0 12.462874-10.248761 22.718427-22.854263 22.718427H377.411147a22.76597 22.76597 0 0 1-22.854263-22.718427 22.76597 22.76597 0 0 1 22.854263-22.711636z m0 0M1086.260037 797.655358v-0.135835h-140.996876c-12.462874 0-22.711636-9.00587-22.711636-20.219061 0-11.077356 10.106134-20.225852 22.711636-20.225852h140.996876v-833.633842c0-5.956371-5.671117-11.077356-12.462874-11.077356H57.892937c-6.791757 0-12.469666 5.120985-12.469666 11.077356V757.067818h141.411173c12.462874 0 22.711636 8.999078 22.711636 20.225853 0 11.077356-10.112926 20.219061-22.711636 20.21906H45.287436v0.142627H0v-874.078755c0-28.389544 25.89697-51.522269 57.892937-51.522269h1015.897434c31.85334 0 57.892937 23.132724 57.892937 51.522269V797.655358h-45.423271z m0 0M759.990821 68.152735V408.406179c0 28.077124 1.657189 61.791406 4.971566 101.149637h-1.657189c-5.752618-24.762746-10.839644-42.007017-15.254286-51.732813L578.589782 68.152735h-36.811323L372.650125 454.827838c-3.97997 8.842868-9.066996 27.078735-15.254286 54.721187h-1.989985c2.207321-23.879818 3.314377-58.585696 3.314377-104.131219v-337.265071h-63.339926V581.847278h89.868529L536.800101 229.660717c11.491653-26.976859 19.118796-47.976972 22.881429-63.00713h2.322781c11.491653 31.615629 19.567052 53.063998 24.205822 64.338315l154.206844 350.862168h85.562555v-513.694543h-65.988711z"  horiz-adv-x="1131" />

    
    <glyph glyph-name="Y" unicode="&#58895;" d="M285.244495 701.11514c12.745944 0 23.227399 10.76307 23.227399 24.0761V871.9239C308.468036 885.23693 298.129317 896 285.244495 896c-12.745944 0-23.231257-10.76307-23.231257-24.0761v-146.73266c0-13.31303 10.338719-24.0761 23.231257-24.0761z m579.689679 0c12.745944 0 23.227399 10.76307 23.227399 24.0761V871.9239c0 13.31303-10.338719 24.0761-23.227399 24.0761-12.753659 0-23.231257-10.76307-23.231257-24.0761v-146.73266c0.003858-13.31303 10.481455-24.0761 23.231257-24.0761zM385.938992 771.93151h382.964682c12.892537 0 23.370135 10.338719 23.370134 23.227399 0 12.745944-10.477598 23.231257-23.370134 23.231257h-382.964682c-12.884822 0-23.366277-10.342577-23.366277-23.231257 0-12.884822 10.481455-23.227399 23.366277-23.227399z m0 0M1110.79895 818.529044v-0.142736h-144.178842c-12.745944 0-23.227399-9.212262-23.227399-20.677439 0-11.330156 10.338719-20.681296 23.227399-20.681296h144.178842v-852.469845c0-6.091357-5.802028-11.330156-12.745944-11.330156H59.204599c-6.943916 0-12.753659 5.238799-12.753659 11.330156V777.031431h144.60705c12.745944 0 23.227399 9.204546 23.227399 20.681296 0 11.330156-10.342577 20.677439-23.227399 20.677439H46.312062v0.142736H0V-75.299535c0-29.033284 26.487182-52.688891 59.204599-52.688892h1038.852265c32.574681 0 59.204599 23.651749 59.204599 52.688892V818.529044h-46.462513z m0 0M808.630588 629.411493l-192.134297-368.818382v-214.736744h-75.723404v212.854171L353.537909 629.411493h86.27044l126.205673-258.437122c0.246895-0.250753 4.899318-12.68422 13.937982-37.296544h1.130316c3.012888 10.547037 8.159101 22.853199 15.446355 36.918486l131.857249 258.81518h80.244664z"  horiz-adv-x="1157" />

    
    <glyph glyph-name="icon-test4" unicode="&#58896;" d="M0 896h1024v-1024H0zM580.61438 634.452536v-168.564436h168.564436V634.452536h-168.564436z m-56.186019 84.283813h280.939664a28.094604 28.094604 0 0 0 28.091414-28.097794v-280.939664a28.094604 28.094604 0 0 0-28.091414-28.091414h-280.939664a28.104174 28.104174 0 0 0-28.100984 28.094604V690.641745a28.104174 28.104174 0 0 0 28.100984 28.094604zM243.488698 662.54714h168.564436a28.094604 28.094604 0 0 0 28.094604-28.094604v-280.939664a28.091414 28.091414 0 0 0-28.094604-28.091414H243.488698a28.091414 28.091414 0 0 0-28.094605 28.091414V634.452536a28.091414 28.091414 0 0 0 28.094605 28.094604z m589.973931-421.412685v-112.375228a28.094604 28.094604 0 0 0-28.091414-28.094604H243.488698a28.094604 28.094604 0 0 0-28.094605 28.094604v112.375228a28.094604 28.094604 0 0 0 28.094605 28.097794h561.882517a28.094604 28.094604 0 0 0 28.091414-28.097794z m0 0"  horiz-adv-x="1024" />

    
    <glyph glyph-name="i-Mpingtaixingzhinen1" unicode="&#58883;" d="M811.649169 537.430507H683.188184v28.89953a14.442315 14.442315 0 0 1-4.235468 10.218022 14.43114 14.43114 0 0 1-10.214297 4.235469h-103.465386l3.468093 4.622882h33.816697a14.45349 14.45349 0 0 1 0 28.899531h-11.708072l3.758652 4.771886a14.44604 14.44604 0 0 1 2.890698 8.81365V674.422031a14.44604 14.44604 0 0 1-14.45349 14.449765h-94.648012a14.45349 14.45349 0 0 1-14.449765-14.449765v-2.890698h-40.752883A43.349296 43.349296 0 0 1 389.834479 605.067627a43.353021 43.353021 0 0 1 43.360472-19.083823h40.458598v-4.626607H228.003812a14.449765 14.449765 0 0 1-14.449765-14.449765v-550.555058a14.45349 14.45349 0 0 1 14.449765-14.446041h49.998647v-21.102841a14.45349 14.45349 0 0 1 14.449766-14.449765h80.198246a14.45349 14.45349 0 0 1 14.449765 14.449765v20.953836h265.452509v-20.953836c0-3.82943 1.523577-7.50613 4.231743-10.218021a14.464666 14.464666 0 0 1 10.218022-4.231744h80.201972a14.45349 14.45349 0 0 1 14.44604 14.449765v20.953836h49.853367a14.460941 14.460941 0 0 1 14.45349 14.449766v505.760413a14.442315 14.442315 0 0 1-3.810804 10.825217 14.434865 14.434865 0 0 1-10.497406 4.637783z m-14.449766-28.899531v-381.631751H683.188184v381.341191l114.011219 0.29056z m-144.486478-208.513951l-267.054312-89.738295v258.512597h268.484761l-1.430449-168.774302z m-267.058038-118.641551h268.484762v-54.189414h-268.484762v54.189414z m268.484762 316.605944h-268.484762V552.170832h268.484762v-54.189414z m-220.944698 117.192477a13.719641 13.719641 0 0 0-13.049118 20.924035 13.723366 13.723366 0 0 0 13.049118 6.388592h40.458598v-27.312627H433.194951z m69.797693 44.794645h65.457922v-26.005107l-39.884929-52.60251h-25.576718V659.96854z m-260.106952-107.507148h113.724385v-425.562167H242.740413l0.145279 425.562167z m115.169734-557.204409H307.043545v6.213511h51.011881v-6.213511z m374.695565 0h-51.008156v6.213511h51.008156v-6.213511z m-490.010578 35.690436v66.761716h554.31371v-66.761716H242.740413z m0 0M414.122303 293.367674h84.389014l26.008833-27.163621a14.464666 14.464666 0 0 1 10.404278-4.481328h90.75153a14.43114 14.43114 0 0 1 10.214296 4.235469 14.434865 14.434865 0 0 1 4.235469 10.218022v126.579795a14.45349 14.45349 0 0 1-14.449765 14.449766H414.122303a14.464666 14.464666 0 0 1-10.218021-4.231744 14.464666 14.464666 0 0 1-4.231744-10.218022v-94.797016a14.44604 14.44604 0 0 1 14.449765-14.591321z m14.449766 94.793292h182.508843v-97.251875h-69.793968l-26.008833 27.167347a14.460941 14.460941 0 0 1-10.549558 4.477602h-76.011204l-0.14528 65.606926z m0 0M488.397599 290.909091H414.122303a14.449765 14.449765 0 1 1 0-28.899531h74.275296a14.45349 14.45349 0 0 1 0 28.899531z m213.717953-52.59506h76.152759a14.434865 14.434865 0 0 1 14.45349 14.44604v197.390724a14.45349 14.45349 0 0 1-14.45349 14.449765h-76.152759a14.45349 14.45349 0 0 1-14.449766-14.449765v-197.245444a14.449765 14.449765 0 0 1 14.449766-14.59132z m14.449765 197.386999h47.107949v-46.530555a12.404671 12.404671 0 0 1-5.200277 1.158515h-22.8313a14.45349 14.45349 0 0 1-12.512699-21.672786 14.45349 14.45349 0 0 1 12.512699-7.226745h22.8313a14.43114 14.43114 0 0 1 5.200277 1.013234v-10.840117a14.386438 14.386438 0 0 1-5.200277 1.013234h-22.8313a14.45349 14.45349 0 0 1 0-28.903256h22.8313a14.352912 14.352912 0 0 1 5.200277 1.013234v-11.562792a14.542894 14.542894 0 0 1-5.200277 1.013234h-22.8313a14.45349 14.45349 0 0 1 0-28.903255h22.8313a12.404671 12.404671 0 0 1 5.200277 1.158514v-18.931092H716.565317v168.200633zM335.078846 497.981418H264.130088a14.460941 14.460941 0 0 1-14.449765-14.449765v-231.203696c0-3.82943 1.523577-7.50613 4.231744-10.218022a14.464666 14.464666 0 0 1 10.218021-4.231744h70.948758a14.460941 14.460941 0 0 1 14.449765 14.449766v231.062141a14.43114 14.43114 0 0 1-14.449765 14.59132z m-14.449765-231.207421h-41.907672v202.01733h41.762392l0.14528-202.01733z m0 0"  horiz-adv-x="1024" />

    
    <glyph glyph-name="zhuangji" unicode="&#58882;" d="M781.323809 373.642466h-248.671556c-35.864009 0-65.041686 29.177677-65.041686 65.041686v236.115488c0 35.86052 29.177677 65.038196 65.041686 65.038196h248.671556c35.864009 0 65.041686-29.177677 65.041686-65.038196v-236.115488c0-35.864009-29.177677-65.041686-65.041686-65.041686zM537.405273 670.043131v-226.60596h239.165517V670.043131M364.174814 365.535811c0-14.792988-13.540173-26.787208-30.245536-26.787208H258.320674c-16.701873 0-30.245536 11.99422-30.245536 26.787208V615.564874c0 14.792988 13.540173 26.787208 30.245536 26.787208h75.612094c16.701873 0 30.245536-11.99422 30.245536-26.787208v-250.029063zM835.289075 104.93285c0-23.126476-16.799586-41.876823-37.521633-41.876823H241.172115c-20.722048 0-37.521634 18.750348-37.521634 41.876823v76.774176c0 23.126476 16.799586 41.876823 37.521634 41.876823h556.595327c20.722048 0 37.521634-18.750348 37.521633-41.876823v-76.774176z"  horiz-adv-x="1024" />

    
    <glyph glyph-name="yingyongchengxu-zhis" unicode="&#58885;" d="M528.706519 881.297422C251.146496 881.297422 24.053298 654.204224 24.053298 376.644201c0-277.55401 227.093198-504.644201 504.650214-504.644201 277.551003 0 504.638188 227.090191 504.638188 504.644201 0 277.560023-227.090191 504.653221-504.635181 504.653221z m0-946.211635c-246.01713 0-441.573447 195.553311-441.573448 441.564427 0 246.01713 195.556318 441.573447 441.573448 441.573448 246.011116 0 441.564427-195.556318 441.564427-441.573448 0-246.014123-195.556318-441.564427-441.564427-441.564427z m0 0M785.869345 155.269675l-94.571553 94.571553c35.189975 41.786592 57.183709 96.77243 57.183709 156.157016a241.230523 241.230523 0 0 1-241.931076 241.928069 241.230523 241.230523 0 0 1-241.928069-241.928069 241.230523 241.230523 0 0 1 241.928069-241.931076c59.381579 0 114.370424 21.993734 156.154009 57.183709l94.57456-94.57456c8.79148-8.797494 21.990728-8.797494 30.791228 0 6.596617 8.797494 6.596617 21.993734-2.200877 28.593358z m-477.259521 250.725562c0 109.965664 87.974937 197.940601 197.940601 197.940601 109.968671 0 197.943607-87.974937 197.943607-197.940601 0-109.968671-87.974937-197.943607-197.943607-197.943607-109.965664 0-197.940601 87.974937-197.940601 197.943607z m0 0"  horiz-adv-x="1033" />

    
    <glyph glyph-name="yuan1" unicode="&#58897;" d="M511.99586 896C229.231857 896 0 666.768143 0 384.00414s229.231857-511.99586 511.99586-511.99586c282.772284 0 511.99586 229.231857 511.99586 511.99586C1024 666.768143 794.768143 896 511.99586 896z m0-942.571519c-237.801968 0-430.575659 192.773691-430.575659 430.575659s192.773691 430.575659 430.575659 430.575659 430.575659-192.773691 430.575659-430.575659-192.773691-430.575659-430.575659-430.575659zM511.99586 384.00414m-317.408783 0a317.408783 317.408783 0 1 1 634.817566 0 317.408783 317.408783 0 1 1-634.817566 0Z"  horiz-adv-x="1024" />

    


  </font>
</defs>
</svg>
